<svg xmlns="http://www.w3.org/2000/svg" xmlns:xlink="http://www.w3.org/1999/xlink" viewBox="0 0 100 100"><defs><style>.cls-1{fill:#516065;}.cls-11,.cls-2{fill:none;}.cls-3{isolation:isolate;}.cls-4{clip-path:url(#clip-path);}.cls-5{clip-path:url(#clip-path-2);}.cls-6{clip-path:url(#clip-path-3);}.cls-7{clip-path:url(#clip-path-4);}.cls-8{fill:#fff;}.cls-9{clip-path:url(#clip-path-5);}.cls-10{clip-path:url(#clip-path-6);}.cls-11{stroke:#fff;stroke-miterlimit:10;stroke-width:0.5px;}</style><clipPath id="clip-path"><ellipse class="cls-1" cx="50" cy="77.39" rx="31.63" ry="15.81"/></clipPath><clipPath id="clip-path-2"><ellipse class="cls-1" cx="50" cy="22.61" rx="31.63" ry="15.81"/></clipPath><clipPath id="clip-path-3"><path class="cls-1" d="M81.63,22.61V77.39C81.63,86.12,67.47,93.2,50,93.2S18.37,86.12,18.37,77.39V22.61c0,8.73,14.16,15.81,31.63,15.81S81.63,31.34,81.63,22.61Z"/></clipPath><clipPath id="clip-path-4"><ellipse class="cls-2" cx="50" cy="77.39" rx="31.63" ry="15.81"/></clipPath><clipPath id="clip-path-5"><ellipse class="cls-2" cx="50" cy="22.61" rx="31.63" ry="15.81"/></clipPath><clipPath id="clip-path-6"><path class="cls-2" d="M81.63,22.61V77.39C81.63,86.12,67.47,93.2,50,93.2S18.37,86.12,18.37,77.39V22.61c0,8.73,14.16,15.81,31.63,15.81S81.63,31.34,81.63,22.61Z"/></clipPath></defs><title>cylinder</title><g id="Layer_2" data-name="Layer 2"><g id="Calque_1" data-name="Calque 1"><rect class="cls-2" width="100" height="100"/><g class="cls-3"><g class="cls-3"><ellipse class="cls-1" cx="50" cy="77.39" rx="31.63" ry="15.81"/><g class="cls-4"><ellipse class="cls-1" cx="50" cy="77.39" rx="31.63" ry="15.81"/></g></g><g class="cls-3"><ellipse class="cls-1" cx="50" cy="22.61" rx="31.63" ry="15.81"/><g class="cls-5"><ellipse class="cls-1" cx="50" cy="22.61" rx="31.63" ry="15.81"/></g></g><g class="cls-3"><path class="cls-1" d="M81.63,22.61V77.39C81.63,86.12,67.47,93.2,50,93.2S18.37,86.12,18.37,77.39V22.61c0,8.73,14.16,15.81,31.63,15.81S81.63,31.34,81.63,22.61Z"/><g class="cls-6"><g class="cls-3"><path class="cls-1" d="M81.63,22.61V77.39C81.63,86.12,67.47,93.2,50,93.2V38.42C67.47,38.42,81.63,31.34,81.63,22.61Z"/><line class="cls-1" x1="77.31" y1="30.59" x2="77.31" y2="85.37"/><line class="cls-1" x1="65.96" y1="36.26" x2="65.96" y2="91.04"/><path class="cls-1" d="M50,38.42V93.2c-17.47,0-31.63-7.08-31.63-15.81V22.61C18.37,31.34,32.53,38.42,50,38.42Z"/><line class="cls-1" x1="34.04" y1="36.26" x2="34.04" y2="91.04"/><line class="cls-1" x1="22.69" y1="30.59" x2="22.69" y2="85.37"/></g><path class="cls-1" d="M81.63,22.61V77.39C81.63,86.12,67.47,93.2,50,93.2S18.37,86.12,18.37,77.39V22.61c0,8.73,14.16,15.81,31.63,15.81S81.63,31.34,81.63,22.61Z"/></g></g><line class="cls-1" x1="65.96" y1="63.83" x2="65.96" y2="8.96"/><line class="cls-1" x1="34.02" y1="63.83" x2="34.02" y2="8.96"/><line class="cls-1" x1="22.68" y1="63.83" x2="22.68" y2="14.64"/><line class="cls-1" x1="50" y1="61.67" x2="50" y2="6.8"/><line class="cls-1" x1="77.33" y1="69.53" x2="77.33" y2="14.66"/></g><g class="cls-3"><g class="cls-3"><g class="cls-7"><path class="cls-8" d="M50,62.08c17.16,0,31.12,6.87,31.12,15.31S67.16,92.7,50,92.7,18.87,85.83,18.87,77.39,32.84,62.08,50,62.08m0-.5c-17.47,0-31.63,7.08-31.63,15.81S32.53,93.2,50,93.2s31.62-7.08,31.62-15.81S67.47,61.58,50,61.58Z"/></g></g><g class="cls-3"><g class="cls-9"><path class="cls-8" d="M50,7.3c17.16,0,31.12,6.87,31.12,15.31S67.16,37.92,50,37.92,18.87,31.05,18.87,22.61,32.84,7.3,50,7.3m0-.5c-17.47,0-31.63,7.08-31.63,15.81S32.53,38.42,50,38.42s31.62-7.08,31.62-15.81S67.47,6.8,50,6.8Z"/></g></g><g class="cls-3"><g class="cls-10"><g class="cls-3"><path class="cls-8" d="M81.13,26.66V77.39c0,8.36-13.69,15.18-30.62,15.31V38.92c14.74-.11,27.11-5.3,30.62-12.26m.5-4c0,8.73-14.16,15.81-31.62,15.81V93.2c17.47,0,31.62-7.08,31.62-15.81V22.61Z"/><line class="cls-11" x1="77.31" y1="30.59" x2="77.31" y2="85.37"/><line class="cls-11" x1="65.96" y1="36.26" x2="65.96" y2="91.04"/><path class="cls-8" d="M18.87,26.66c3.51,7,15.88,12.15,30.63,12.26V92.7c-16.94-.13-30.63-6.95-30.63-15.31V26.66m-.5-4V77.39C18.37,86.12,32.53,93.2,50,93.2V38.42c-17.47,0-31.63-7.08-31.63-15.81Z"/><line class="cls-11" x1="34.04" y1="36.26" x2="34.04" y2="91.04"/><line class="cls-11" x1="22.69" y1="30.59" x2="22.69" y2="85.37"/></g><path class="cls-8" d="M18.87,26.66C22.43,33.7,35,38.92,50,38.92S77.57,33.7,81.13,26.66V77.39c0,8.44-14,15.31-31.12,15.31S18.87,85.83,18.87,77.39V26.66m62.75-4c0,8.73-14.16,15.81-31.62,15.81S18.37,31.34,18.37,22.61V77.39C18.37,86.12,32.53,93.2,50,93.2s31.62-7.08,31.62-15.81V22.61Z"/></g></g><line class="cls-11" x1="65.96" y1="63.83" x2="65.96" y2="8.96"/><line class="cls-11" x1="34.02" y1="63.83" x2="34.02" y2="8.96"/><line class="cls-11" x1="22.68" y1="63.83" x2="22.68" y2="14.64"/><line class="cls-11" x1="50" y1="61.67" x2="50" y2="6.8"/><line class="cls-11" x1="77.33" y1="69.53" x2="77.33" y2="14.66"/></g></g></g></svg>