<svg xmlns="http://www.w3.org/2000/svg" xmlns:xlink="http://www.w3.org/1999/xlink" viewBox="0 0 30 30"><defs><style>.cls-1{fill:url(#linear-gradient);}.cls-2{fill:none;}</style><linearGradient id="linear-gradient" x1="14.77" y1="18.17" x2="14.77" y2="-0.73" gradientTransform="translate(0.38 5.39) rotate(1.92)" gradientUnits="userSpaceOnUse"><stop offset="0" stop-color="#b77e36"/><stop offset="0.07" stop-color="#b68135"/><stop offset="0.11" stop-color="#b48a31"/><stop offset="0.15" stop-color="#b1992b"/><stop offset="0.19" stop-color="#acae22"/><stop offset="0.21" stop-color="#a7c319"/><stop offset="0.84" stop-color="#628300"/></linearGradient></defs><title>kiwi_3</title><g id="Layer_2" data-name="Layer 2"><g id="Calque_1" data-name="Calque 1"><path class="cls-1" d="M5,17.69a.59.59,0,0,1,.25.34l1,3.71a1.52,1.52,0,0,1-.09,1c-.17.36-.4.77-.63.76-.4,0-.93.1-1,.63l11.16,0s0-.73-2.23-.87-2.43-.95-2.43-.95L10,20s-.25-.54.43-.92a10.23,10.23,0,0,0,3-3.75c.66-1.6,6-3.72,6.92-4.15a3.45,3.45,0,0,1,3.31.38c.64.69,3.47,5.5,3.47,5.5s.27-.26,0-.8-1.91-4.38-1.91-4.38-.49-1.35-.07-1.73S25,5.58,21.41,5.46a4.55,4.55,0,0,0-2.2.32,1.82,1.82,0,0,1-.79.09c-2.31-.26-10.8-1.52-14,2.4C.24,13.72,3.38,16.64,5,17.69Zm2.36,2.84A8,8,0,0,1,8.21,20a.25.25,0,0,1,.34.11l1.64,3.32a.1.1,0,0,1-.12.13,4.18,4.18,0,0,0-1.21-.34c-.53,0-1.2.09-1.43-1S7.21,20.67,7.35,20.54Z"/><rect class="cls-2" width="30" height="30"/></g></g></svg>