<svg xmlns="http://www.w3.org/2000/svg" xmlns:xlink="http://www.w3.org/1999/xlink" viewBox="0 0 100 100"><defs><style>.cls-1{fill:#516065;}.cls-2,.cls-3{fill:none;}.cls-2{stroke:#fff;stroke-miterlimit:10;stroke-width:0.25px;}.cls-4{isolation:isolate;}.cls-5{clip-path:url(#clip-path);}.cls-6{clip-path:url(#clip-path-2);}</style><clipPath id="clip-path"><path class="cls-1" d="M50,92.66a42.2,42.2,0,0,1-19.54-4.79A43.28,43.28,0,0,1,12.12,69.54a42.2,42.2,0,0,1,0-39.07A43.29,43.29,0,0,1,30.46,12.13,42.27,42.27,0,0,1,56.88,7.9a63.24,63.24,0,0,1,6.54,1.63,38.54,38.54,0,0,1,6.11,2.6,46.91,46.91,0,0,1,5.59,3.49c.77.61,1.85,1.38,2.57,2a61.47,61.47,0,0,1,4.64,4.64c1.28,1.5,2.79,3.66,3.89,5.3.56.82,1.15,2,1.64,2.87a46,46,0,0,1,2.6,6.11,38.55,38.55,0,0,1,1.63,6.54A63.6,63.6,0,0,1,92.67,50a48,48,0,0,1-.56,6.88c-.2,1-.4,2.34-.69,3.32a66.58,66.58,0,0,1-2.13,6.34A43.25,43.25,0,0,1,66.54,89.29a66.58,66.58,0,0,1-6.34,2.13c-1,.28-2.32.48-3.32.69A42.59,42.59,0,0,1,50,92.66Z"/></clipPath><clipPath id="clip-path-2"><path class="cls-2" d="M50,92.66a42.2,42.2,0,0,1-19.54-4.79A43.28,43.28,0,0,1,12.12,69.54a42.2,42.2,0,0,1,0-39.07A43.29,43.29,0,0,1,30.46,12.13,42.27,42.27,0,0,1,56.88,7.9a63.24,63.24,0,0,1,6.54,1.63,38.54,38.54,0,0,1,6.11,2.6,46.91,46.91,0,0,1,5.59,3.49c.77.61,1.85,1.38,2.57,2a61.47,61.47,0,0,1,4.64,4.64c1.28,1.5,2.79,3.66,3.89,5.3.56.82,1.15,2,1.64,2.87a46,46,0,0,1,2.6,6.11,38.55,38.55,0,0,1,1.63,6.54A63.6,63.6,0,0,1,92.67,50a48,48,0,0,1-.56,6.88c-.2,1-.4,2.34-.69,3.32a66.58,66.58,0,0,1-2.13,6.34A43.25,43.25,0,0,1,66.54,89.29a66.58,66.58,0,0,1-6.34,2.13c-1,.28-2.32.48-3.32.69A42.59,42.59,0,0,1,50,92.66Z"/></clipPath></defs><title>sphere_2</title><g id="Layer_2" data-name="Layer 2"><g id="Calque_1" data-name="Calque 1"><rect class="cls-3" width="100" height="100"/><g class="cls-4"><path class="cls-1" d="M50,92.66a42.2,42.2,0,0,1-19.54-4.79A43.28,43.28,0,0,1,12.12,69.54a42.2,42.2,0,0,1,0-39.07A43.29,43.29,0,0,1,30.46,12.13,42.27,42.27,0,0,1,56.88,7.9a63.24,63.24,0,0,1,6.54,1.63,38.54,38.54,0,0,1,6.11,2.6,46.91,46.91,0,0,1,5.59,3.49c.77.61,1.85,1.38,2.57,2a61.47,61.47,0,0,1,4.64,4.64c1.28,1.5,2.79,3.66,3.89,5.3.56.82,1.15,2,1.64,2.87a46,46,0,0,1,2.6,6.11,38.55,38.55,0,0,1,1.63,6.54A63.6,63.6,0,0,1,92.67,50a48,48,0,0,1-.56,6.88c-.2,1-.4,2.34-.69,3.32a66.58,66.58,0,0,1-2.13,6.34A43.25,43.25,0,0,1,66.54,89.29a66.58,66.58,0,0,1-6.34,2.13c-1,.28-2.32.48-3.32.69A42.59,42.59,0,0,1,50,92.66Z"/><g class="cls-5"><g class="cls-4"><path class="cls-1" d="M50,92.66A42.87,42.87,0,0,0,92.66,50H50.74C50.74,73.4,50.41,92.66,50,92.66Z"/><path class="cls-1" d="M71.46,86.8H50.37"/><path class="cls-1" d="M86.8,71.46H50.64"/><path class="cls-1" d="M50,92.66C70.41,92.66,87.21,73.4,87.21,50"/><path class="cls-1" d="M50,92.66C62.17,92.66,72.18,73.4,72.18,50"/><path class="cls-1" d="M50,92.66c.41,0,.74-19.26.74-42.67H7.34A42.87,42.87,0,0,0,50,92.66Z"/><path class="cls-1" d="M50.37,86.8H28.54"/><path class="cls-1" d="M50.64,71.46H13.2"/><path class="cls-1" d="M50,92.66C38.54,92.66,29.11,73.4,29.11,50"/><path class="cls-1" d="M50,92.66C30,92.66,13.54,73.4,13.54,50"/><path class="cls-1" d="M50,92.66A42.87,42.87,0,0,1,7.34,50H49.26C49.26,73.4,49.59,92.66,50,92.66Z"/><path class="cls-1" d="M28.54,86.8H49.63"/><path class="cls-1" d="M13.2,71.46H49.36"/><path class="cls-1" d="M92.66,50A42.87,42.87,0,0,0,50,7.34c.41,0,.74,19.26.74,42.66Z"/><path class="cls-1" d="M86.8,28.54H50.64"/><path class="cls-1" d="M71.46,13.2H50.37"/><path class="cls-1" d="M87.21,50C87.21,26.6,70.41,7.34,50,7.34"/><path class="cls-1" d="M72.18,50c0-23.4-10-42.66-22.18-42.66"/><path class="cls-1" d="M50.74,50c0-23.4-.34-42.66-.74-42.66A42.87,42.87,0,0,0,7.34,50Z"/><path class="cls-1" d="M50.64,28.54H13.2"/><path class="cls-1" d="M50.37,13.2H28.54"/><path class="cls-1" d="M29.11,50C29.11,26.6,38.54,7.34,50,7.34"/><path class="cls-1" d="M13.54,50C13.54,26.6,30,7.34,50,7.34"/><path class="cls-1" d="M7.34,50A42.87,42.87,0,0,1,50,7.34c-.41,0-.74,19.26-.74,42.66Z"/><path class="cls-1" d="M13.2,28.54H49.36"/><path class="cls-1" d="M28.54,13.2H49.63"/></g><path class="cls-1" d="M50,92.66a42.2,42.2,0,0,1-19.54-4.79A43.28,43.28,0,0,1,12.12,69.54a42.2,42.2,0,0,1,0-39.07A43.29,43.29,0,0,1,30.46,12.13,42.27,42.27,0,0,1,56.88,7.9a63.24,63.24,0,0,1,6.54,1.63,38.54,38.54,0,0,1,6.11,2.6,46.91,46.91,0,0,1,5.59,3.49c.77.61,1.85,1.38,2.57,2a61.47,61.47,0,0,1,4.64,4.64c1.28,1.5,2.79,3.66,3.89,5.3.56.82,1.15,2,1.64,2.87a46,46,0,0,1,2.6,6.11,38.55,38.55,0,0,1,1.63,6.54A63.6,63.6,0,0,1,92.67,50a48,48,0,0,1-.56,6.88c-.2,1-.4,2.34-.69,3.32a66.58,66.58,0,0,1-2.13,6.34A43.25,43.25,0,0,1,66.54,89.29a66.58,66.58,0,0,1-6.34,2.13c-1,.28-2.32.48-3.32.69A42.59,42.59,0,0,1,50,92.66Z"/></g></g><g class="cls-4"><g class="cls-6"><g class="cls-4"><path class="cls-2" d="M50,92.66A42.87,42.87,0,0,0,92.66,50H50.74C50.74,73.4,50.41,92.66,50,92.66Z"/><path class="cls-2" d="M71.46,86.8H50.37"/><path class="cls-2" d="M86.8,71.46H50.64"/><path class="cls-2" d="M50,92.66C70.41,92.66,87.21,73.4,87.21,50"/><path class="cls-2" d="M50,92.66C62.17,92.66,72.18,73.4,72.18,50"/><path class="cls-2" d="M50,92.66c.41,0,.74-19.26.74-42.67H7.34A42.87,42.87,0,0,0,50,92.66Z"/><path class="cls-2" d="M50.37,86.8H28.54"/><path class="cls-2" d="M50.64,71.46H13.2"/><path class="cls-2" d="M50,92.66C38.54,92.66,29.11,73.4,29.11,50"/><path class="cls-2" d="M50,92.66C30,92.66,13.54,73.4,13.54,50"/><path class="cls-2" d="M50,92.66A42.87,42.87,0,0,1,7.34,50H49.26C49.26,73.4,49.59,92.66,50,92.66Z"/><path class="cls-2" d="M28.54,86.8H49.63"/><path class="cls-2" d="M13.2,71.46H49.36"/><path class="cls-2" d="M92.66,50A42.87,42.87,0,0,0,50,7.34c.41,0,.74,19.26.74,42.66Z"/><path class="cls-2" d="M86.8,28.54H50.64"/><path class="cls-2" d="M71.46,13.2H50.37"/><path class="cls-2" d="M87.21,50C87.21,26.6,70.41,7.34,50,7.34"/><path class="cls-2" d="M72.18,50c0-23.4-10-42.66-22.18-42.66"/><path class="cls-2" d="M50.74,50c0-23.4-.34-42.66-.74-42.66A42.87,42.87,0,0,0,7.34,50Z"/><path class="cls-2" d="M50.64,28.54H13.2"/><path class="cls-2" d="M50.37,13.2H28.54"/><path class="cls-2" d="M29.11,50C29.11,26.6,38.54,7.34,50,7.34"/><path class="cls-2" d="M13.54,50C13.54,26.6,30,7.34,50,7.34"/><path class="cls-2" d="M7.34,50A42.87,42.87,0,0,1,50,7.34c-.41,0-.74,19.26-.74,42.66Z"/><path class="cls-2" d="M13.2,28.54H49.36"/><path class="cls-2" d="M28.54,13.2H49.63"/></g><path class="cls-2" d="M50,92.66a42.2,42.2,0,0,1-19.54-4.79A43.28,43.28,0,0,1,12.12,69.54a42.2,42.2,0,0,1,0-39.07A43.29,43.29,0,0,1,30.46,12.13,42.27,42.27,0,0,1,56.88,7.9a63.24,63.24,0,0,1,6.54,1.63,38.54,38.54,0,0,1,6.11,2.6,46.91,46.91,0,0,1,5.59,3.49c.77.61,1.85,1.38,2.57,2a61.47,61.47,0,0,1,4.64,4.64c1.28,1.5,2.79,3.66,3.89,5.3.56.82,1.15,2,1.64,2.87a46,46,0,0,1,2.6,6.11,38.55,38.55,0,0,1,1.63,6.54A63.6,63.6,0,0,1,92.67,50a48,48,0,0,1-.56,6.88c-.2,1-.4,2.34-.69,3.32a66.58,66.58,0,0,1-2.13,6.34A43.25,43.25,0,0,1,66.54,89.29a66.58,66.58,0,0,1-6.34,2.13c-1,.28-2.32.48-3.32.69A42.59,42.59,0,0,1,50,92.66Z"/></g><path class="cls-2" d="M50,92.66a42.2,42.2,0,0,1-19.54-4.79A43.28,43.28,0,0,1,12.12,69.54a42.2,42.2,0,0,1,0-39.07A43.29,43.29,0,0,1,30.46,12.13,42.27,42.27,0,0,1,56.88,7.9a63.24,63.24,0,0,1,6.54,1.63,38.54,38.54,0,0,1,6.11,2.6,46.91,46.91,0,0,1,5.59,3.49c.77.61,1.85,1.38,2.57,2a61.47,61.47,0,0,1,4.64,4.64c1.28,1.5,2.79,3.66,3.89,5.3.56.82,1.15,2,1.64,2.87a46,46,0,0,1,2.6,6.11,38.55,38.55,0,0,1,1.63,6.54A63.6,63.6,0,0,1,92.67,50a48,48,0,0,1-.56,6.88c-.2,1-.4,2.34-.69,3.32a66.58,66.58,0,0,1-2.13,6.34A43.25,43.25,0,0,1,66.54,89.29a66.58,66.58,0,0,1-6.34,2.13c-1,.28-2.32.48-3.32.69A42.59,42.59,0,0,1,50,92.66Z"/></g></g></g></svg>