<svg xmlns="http://www.w3.org/2000/svg" viewBox="0 0 100 102.87"><defs><style>.cls-1{fill:#516065;}.cls-2{fill:#fff;}.cls-3{fill:#b3b3b3;stroke-width:0.25px;}.cls-3,.cls-4{stroke:#e6e6e6;stroke-miterlimit:10;}.cls-4{fill:#999;stroke-width:0.5px;}</style></defs><title>tools</title><g id="Layer_2" data-name="Layer 2"><g id="Calque_1" data-name="Calque 1"><path class="cls-1" d="M31.12,89.76a6.48,6.48,0,0,0,0-5.15A7,7,0,0,0,27,80.91l-8.53-3.07a7.23,7.23,0,0,0-2.61-.48A7.35,7.35,0,0,0,9,81.7L3.63,94A18.44,18.44,0,0,1,5.17,71.48,19.46,19.46,0,0,1,18.85,65H19l.13-.12a1.2,1.2,0,0,1,1-.38c4.18-.64,26.24-23.31,39-36.77L59.9,27l.23-.22-.1-.3a14.25,14.25,0,0,1-.52-4.69,19,19,0,0,1,14-18.18L69,16a6.94,6.94,0,0,0,4.43,8.83L82,27.64a8.6,8.6,0,0,0,2.38.34,6.87,6.87,0,0,0,6.78-4.49l4.64-12.7A17.7,17.7,0,0,1,99.5,21.54c0,10.44-8.91,18.94-19.86,18.94H77.71C70.12,41.77,40.1,73.8,38.83,75.16l-.24.25.15.31a18.68,18.68,0,0,1-2.68,20.43,20.39,20.39,0,0,1-10.12,6Z"/><path class="cls-2" d="M72.7,4.39,68.51,15.85a7.43,7.43,0,0,0,4.76,9.45l8.57,2.83a9.08,9.08,0,0,0,2.5.35,7.35,7.35,0,0,0,7.25-4.81l4.33-11.83A17,17,0,0,1,99,21.54C99,31.7,90.31,40,79.64,40h-2.1C70,41.29,41.67,71.39,38.46,74.82l-.47.51.31.62A18.17,18.17,0,0,1,35.7,95.8a20,20,0,0,1-8.91,5.64l4.79-11.49a7,7,0,0,0,0-5.54,7.47,7.47,0,0,0-4.41-4l-8.51-3.06a7.74,7.74,0,0,0-2.81-.52,7.85,7.85,0,0,0-7.28,4.63l-5,11.41a17.94,17.94,0,0,1,2-21.09A19,19,0,0,1,18.88,65.5l.36,0,.27-.25c.2-.19.26-.24.69-.24h.15c4-.63,23.56-20.42,39.23-36.92l.65-.68.48-.45-.22-.62A13.88,13.88,0,0,1,60,21.79,18.45,18.45,0,0,1,72.7,4.39m1.71-1.53A19.62,19.62,0,0,0,59,21.79a14.68,14.68,0,0,0,.55,4.86c-.28.26-34.39,36.57-39.35,37.34a1.67,1.67,0,0,0-1.38.51,20,20,0,0,0-14,6.65A18.87,18.87,0,0,0,3.7,94.94.88.88,0,0,0,4,94.43l5.5-12.53a6.85,6.85,0,0,1,6.36-4,6.77,6.77,0,0,1,2.44.45l8.53,3.07a6.1,6.1,0,0,1,3.85,8.18L25.43,102.1c0,.26-.28.51-.28.77a20.76,20.76,0,0,0,11.28-6.39,19.09,19.09,0,0,0,2.75-21S70.28,42.25,77.71,41h1.93C90.92,41,100,32.28,100,21.54A18.47,18.47,0,0,0,95.6,9.77c0,.26-.28.51-.28.77L90.64,23.33a6.41,6.41,0,0,1-6.31,4.15,8.09,8.09,0,0,1-2.22-.31l-8.53-2.81a6.45,6.45,0,0,1-4.13-8.18L74.14,3.38a.88.88,0,0,0,.28-.51Z"/><path class="cls-3" d="M98.79,89.77l-6.74,7-9.48-6.24c-.5-.25-.75-.5-1.25-.75-1.75-1.5-2-4.49-.75-7.24L45.14,50.6l7.24-6L85.06,78c2-1,4.49-1,6,.5h0l1,1.5Z"/><path class="cls-4" d="M20.94,2.69S10-3.55,3.72,3.93s.5,16.47.5,16.47L35.91,41.61s3.74,1.5,7.74,11c0,0,7.74-1.5,10.23-11.73,0,0-6.49-2.74-9.73-6.74S20.94,2.69,20.94,2.69Z"/></g></g></svg>